# AST/ASF file generated using VICON BodyLanguage
# -----------------------------------------------
:version 1.10
:name VICON
:units
  mass 1.0
  length 0.45
  angle deg
:documentation
   .ast/.asf automatically generated from VICON data using
   VICON BodyBuilder and BodyLanguage model FoxedUp or BRILLIANT.MOD
:root
   order TX TY TZ RX RY RZ
   axis XYZ
   position 0 0 0  
   orientation 0 0 0 
:bonedata
  begin
     id 1 
     name lhipjoint
     direction 0.611804 -0.747784 0.257906 
     length 2.29243 
     axis 0 0 0  XYZ
  end
  begin
     id 2 
     name lfemur
     direction 0.34202 -0.939693 0  
     length 7.31159  
     axis 0 0 20  XYZ
    dof rx ry rz
    limits (-160.0 20.0)
           (-70.0 70.0)
           (-60.0 70.0)
  end
  begin
     id 3 
     name ltibia
     direction 0.34202 -0.939693 0   
     length 7.33391   
     axis 0 0 20   XYZ
    dof rx
    limits (-10.0 170.0)
  end
  begin
     id 4 
     name lfoot
     direction 0.122263 -0.335914 0.933924   
     length 1.76083   
     axis -90 7.62852e-016 20   XYZ
    dof rx rz
    limits (-45.0 90.0)
           (-70.0 20.0)
  end
  begin
     id 5 
     name ltoes
     direction 1.53533e-011 -4.2177e-011 1   
     length 0.879206   
     axis -90 7.62852e-016 20   XYZ
    dof rx
    limits (-90.0 20.0)
  end
  begin
     id 6 
     name rhipjoint
     direction -0.646469 -0.721248 0.248754   
     length 2.37677  
     axis 0 0 0  XYZ 
  end
  begin
     id 7 
     name rfemur
     direction -0.34202 -0.939693 0   
     length 7.18623   
     axis 0 0 -20   XYZ
    dof rx ry rz
    limits (-160.0 20.0)
           (-70.0 70.0)
           (-70.0 60.0)
  end
  begin
     id 8 
     name rtibia
     direction -0.34202 -0.939693 0   
     length 7.36567   
     axis 0 0 -20   XYZ
    dof rx
    limits (-10.0 170.0)
 end
 begin
     id 9 
     name rfoot
     direction -0.126681 -0.348054 0.928876   
     length 1.71902  
     axis -90 -7.62852e-016 -20   XYZ
    dof rx rz
    limits (-45.0 90.0)
           (-20.0 70.0)
  end
  begin
     id 10 
     name rtoes
     direction -1.53551e-011 -4.21898e-011 1   
     length 0.857792   
     axis -90 -7.62852e-016 -20   XYZ
    dof rx
    limits (-90.0 20.0)
  end
  begin
     id 11 
     name lowerback
     direction 0.0106509 0.999778 0.0181844   
     length 2.07668   
     axis 0 0 0   XYZ
    dof rx ry rz
    limits (-20.0 45.0)
           (-30.0 30.0)
           (-30.0 30.0)
  end
  begin
     id 12 
     name upperback
     direction -0.00456018 0.999989 -0.000590935   
     length 2.08011   
     axis 0 0 0   XYZ
    dof rx ry rz
    limits (-20.0 45.0)
           (-30.0 30.0)
           (-30.0 30.0)
  end
  begin
     id 13 
     name thorax
     direction -0.00910382 0.999916 -0.00923765   
     length 2.07397   
     axis 0 0 0   XYZ
    dof rx ry rz
    limits (-20.0 45.0)
           (-30.0 30.0)
           (-30.0 30.0)
  end
  begin
     id 14 
     name lowerneck
     direction 0.00171967 0.99778 0.0665733   
     length 1.67556   
     axis 0 0 0   XYZ
    dof rx ry rz
    limits (-20.0 45.0)
           (-30.0 30.0)
           (-30.0 30.0)
  end
  begin
     id 15 
     name upperneck
     direction -0.0143166 0.991302 -0.130828   
     length 1.68462   
     axis 0 0 0   XYZ
    dof rx ry rz
    limits (-20.0 45.0)
           (-30.0 30.0)
           (-30.0 30.0)
  end
  begin
     id 16
     name head
     direction -0.00606378 0.998665 -0.0512995  
     length 1.69269  
     axis 0 0 0   XYZ
    dof rx ry rz
    limits (-20.0 45.0)
           (-30.0 30.0)
           (-30.0 30.0)
  end
  begin
     id 17 
     name lclavicle
     direction 0.9638 0.179341 0.197297  
     length 4.12888  
     axis 0 0 0   XYZ
    dof ry rz
    limits (-20.0 10.0)
           (0.0 20.0)
  end
  begin
     id 18 
     name lhumerus
     direction 1 -4.48972e-011 -2.47351e-027   
     length 5.01834   
     axis -180 -30 -90   XYZ
    dof rx ry rz
    limits (-60.0 90.0)
           (-90.0 90.0)
           (-90.0 90.0)
  end
  begin
     id 19
     name lradius
     direction 1 -4.48965e-011 1.51591e-026   
     length 3.4869   
     axis -180 -30 -90   XYZ
    dof rx
    limits (-10.0 170.0)
  end
  begin
     id 20
     name lwrist
     direction 1 -4.48957e-011 2.70032e-026   
     length 1.74345   
     axis -1.81515e-014 90 90   XYZ
    dof ry
    limits (-180.0 0.0)
 end
  begin
     id 21 
     name lhand
     direction 1 -4.48951e-011 5.40064e-026   
     length 0.76799   
     axis -3.44607e-014 90 90   XYZ
    dof rx rz
    limits (-90.0 90.0)
           (-45.0 45.0)
  end
  begin
     id 22 
     name lfingers
     direction 1 -4.48971e-011 1.08013e-025   
     length 0.619174   
     axis -6.89214e-014 90 90   XYZ
    dof rx
    limits (0.0 90.0)
  end
  begin
     id 23
     name lthumb
     direction 0.707107 -6.34931e-011 0.707107   
     length 0.889013   
     axis -90 45 2.85299e-015   XYZ
    dof rx rz
    limits (-45.0 45.0)
           (-45.0 45.0)
  end
  begin
     id 24 
     name rclavicle
     direction -0.961409 0.252588 0.109054   
     length 4.04305  
     axis 0 0 0   XYZ 
    dof ry rz
    limits (-10.0 20.0)
           (-20.0 0.0)
  end
  begin
     id 25 
     name rhumerus
     direction -1 -4.4897e-011 1.33872e-017  
     length 4.70164   
     axis -180 30 90   XYZ
    dof rx ry rz
    limits (-90.0 60.0)
           (-90.0 90.0)
           (-90.0 90.0)
  end
  begin
     id 26 
     name rradius
     direction -1 -4.48954e-011 1.83844e-026   
     length 3.49911   
     axis -180 30 90   XYZ
    dof rx
    limits (-10.0 170.0)
  end
  begin
     id 27 
     name rwrist
     direction -1 -4.49008e-011 2.70032e-026   
     length 1.74955   
     axis -1.81515e-014 -90 -90   XYZ
    dof ry
    limits (-180.0 0.0)
  end
  begin
     id 28
     name rhand
     direction -1 -4.48916e-011 5.40064e-026   
     length 0.739335   
     axis -3.44607e-014 -90 -90   XYZ
    dof rx rz
    limits (-90.0 90.0)
           (-45.0 45.0)
  end
  begin
     id 29
     name rfingers
     direction -1 -4.48987e-011 1.08013e-025   
     length 0.596071   
     axis -6.89214e-014 -90 -90   XYZ
    dof rx
    limits (0.0 90.0)
  end
  begin
     id 30
     name rthumb
     direction -0.707107 -6.34935e-011 0.707107   
     length 0.855843   
     axis -90 -45 -2.85299e-015   XYZ
    dof rx rz
    limits (-45.0 45.0)
           (-45.0 45.0)
  end
:hierarchy
  begin
    root lhipjoint rhipjoint lowerback
    lhipjoint lfemur
    lfemur ltibia
    ltibia lfoot
    lfoot ltoes
    rhipjoint rfemur
    rfemur rtibia
    rtibia rfoot
    rfoot rtoes
    lowerback upperback
    upperback thorax
    thorax lowerneck lclavicle rclavicle
    lowerneck upperneck
    upperneck head
    lclavicle lhumerus
    lhumerus lradius
    lradius lwrist
    lwrist lhand lthumb
    lhand lfingers
    rclavicle rhumerus
    rhumerus rradius
    rradius rwrist
    rwrist rhand rthumb
    rhand rfingers
  end

#!OML:ASF I:\salsa\salsa 7_09\Patient 1\Session 1\dancermale.ASF
:FULLY-SPECIFIED
:DEGREES
887
root 10.7272 16.8257 1.46244 186.189 19.1291 537.848
lowerback -2.40317 1.4187 4.99232
upperback 0.231227 1.75959 -0.775111
thorax 1.76173 0.930906 -3.52789
lowerneck -9.69976 -35.9413 -2.62853
upperneck 6.44037 25.0207 0.0352014
head 209.892 -191.074 -360.943
rclavicle -7.32522e-014 1.82882e-014
rhumerus -23.753 -28.0005 -47.8956
rradius 68.7975
rwrist -42.4183
rhand -11.4205 3.77245
rfingers 7.12502
rthumb 14.6154 -25.6925
lclavicle -7.32522e-014 1.82882e-014
lhumerus -47.8897 -7.98475 89.5805
lradius 87.1116
lwrist 29.9669
lhand -15.869 46.6683
lfingers 7.12502
lthumb 10.3266 796.395
rfemur -21.9386 0.425103 17.0243
rtibia 48.5592
rfoot -21.9574 -0.469104
rtoes 6.3997
lfemur -36.0058 2.65538 -32.6792
ltibia 24.8907
lfoot 5.27035 -17.9631
ltoes -21.9891
888
root 10.6653 16.8761 1.64796 186.697 17.9968 538.137
lowerback -2.00945 1.47013 4.72414
upperback 0.273963 1.85162 -0.361758
thorax 1.57088 0.969551 -2.95573
lowerneck -10.1185 -36.3729 -2.36642
upperneck 6.39081 25.0797 -0.114975
head 210.127 -190.056 -360.91
rclavicle -4.37326e-015 1.07344e-014
rhumerus -22.2574 -28.3011 -46.3209
rradius 66.7488
rwrist -43.19
rhand -8.38326 4.05875
rfingers 7.12502
rthumb 17.54 -25.17
lclavicle -4.37326e-015 1.07344e-014
lhumerus -48.5304 -6.80504 89.4741
lradius 86.7314
lwrist 29.9553
lhand -15.7602 46.9198
lfingers 7.12502
lthumb 10.4315 796.641
rfemur -20.8687 0.397296 17.6464
rtibia 44.9278
rfoot -22.8044 -2.9583
rtoes 0.674527
lfemur -36.496 2.11385 -31.3404
ltibia 25.9465
lfoot 0.861943 -15.5381
ltoes -18.7477
889
root 10.6043 16.9261 1.83248 187.233 16.9163 538.41
lowerback -1.7259 1.59073 4.60494
upperback 0.383139 2.02719 -0.0333238
thorax 1.52288 1.05717 -2.54999
lowerneck -10.8064 -37.0172 -1.80677
upperneck 6.14749 24.3664 -0.424127
head 210.184 -187.883 -360.741
rclavicle -2.73329e-014 4.13472e-014
rhumerus -20.7128 -28.6431 -44.8685
rradius 64.5872
rwrist -43.7847
rhand -5.67996 4.40035
rfingers 7.12502
rthumb 20.14 -24.5757
lclavicle -2.73329e-014 4.13472e-014
lhumerus -49.1184 -5.87451 89.1993
lradius 86.5149
lwrist 30.158
lhand -15.3703 46.908
lfingers 7.12502
lthumb 10.8076 796.61
rfemur -19.827 1.25843 18.1656
rtibia 41.289
rfoot -23.1967 -5.04917
rtoes -0.498784
lfemur -37.5889 1.50916 -29.9473
ltibia 29.0441
lfoot -4.47442 -11.696
ltoes -19.0901
890
root 10.5416 16.9631 2.01155 187.722 16.0267 538.18
lowerback -1.80432 1.96 4.59169
upperback 0.701128 2.50911 -0.243261
thorax 1.94165 1.31257 -2.73062
lowerneck -11.9216 -37.9794 -0.43944
upperneck 5.8492 22.7343 -0.610315
head 210.113 -184.198 -360.98
rclavicle -4.52235e-014 -7.95139e-015
rhumerus -19.65 -29.8134 -43.7232
rradius 62.6458
rwrist -44.0512
rhand -3.24903 4.86836
rfingers 7.12502
rthumb 22.4749 -23.8438
lclavicle -4.52235e-014 -7.95139e-015
lhumerus -49.2434 -5.85036 88.5352
lradius 86.1703
lwrist 30.3939
lhand -15.1323 46.4005
lfingers 7.12502
lthumb 11.0371 796.09
rfemur -20.0359 2.23839 18.0284
rtibia 39.4307
rfoot -23.6407 -6.96427
rtoes -0.31354
lfemur -38.7591 0.941186 -29.1313
ltibia 32.8997
lfoot -7.8268 -7.14658
ltoes -16.6731
891
root 10.4721 17.0077 2.18878 188.301 14.9006 538.068
lowerback -1.81654 2.17913 4.63794
upperback 0.824962 2.79814 -0.310528
thorax 2.10583 1.46378 -2.80967
lowerneck -12.8182 -38.6544 0.592203
upperneck 5.7379 22.2478 -0.740087
head 210.352 -181.201 -361.478
rclavicle 1.97791e-014 1.43125e-014
rhumerus -18.7997 -30.633 -42.6237
rradius 60.9447
rwrist -44.0293
rhand -0.744133 5.25615
rfingers 7.12502
rthumb 24.8774 -23.1451
lclavicle 1.97791e-014 1.43125e-014
lhumerus -49.7058 -5.69197 87.8922
lradius 85.8551
lwrist 30.4922
lhand -14.839 46.4567
lfingers 7.12502
lthumb 11.3201 796.131
rfemur -20.4335 2.54878 17.9768
rtibia 37.8618
rfoot -23.7293 -8.5033
rtoes 1.20605
lfemur -39.9006 0.92953 -28.3764
ltibia 37.3815
lfoot -9.04964 -3.65951
ltoes -11.3425
892
root 10.3933 17.0562 2.35939 188.819 13.5904 538.17
lowerback -1.78787 2.33663 4.92899
upperback 0.889066 3.00222 -0.279014
thorax 2.18699 1.57323 -2.92988
lowerneck -13.5004 -39.7067 2.07634
upperneck 5.65482 21.3589 -1.06489
head 210.654 -176.792 -361.563
rclavicle 1.15295e-014 3.18055e-015
rhumerus -18.1716 -31.2585 -41.504
rradius 59.4608
rwrist -43.8165
rhand 1.28705 5.43709
rfingers 7.12502
rthumb 26.8226 -22.6807
lclavicle 1.15295e-014 3.18055e-015
lhumerus -50.2577 -5.58831 87.1942
lradius 85.4809
lwrist 30.4021
lhand -14.4351 46.8643
lfingers 7.12502
lthumb 11.7096 796.517
rfemur -20.6082 2.22155 18.071
rtibia 36.1364
rfoot -23.4555 -9.63116
rtoes 3.45437
lfemur -40.8394 0.644772 -27.3011
ltibia 41.9758
lfoot -9.48173 -1.09957
ltoes -9.56043
893
root 10.3144 17.1086 2.52335 189.461 12.3823 538.389
lowerback -1.89064 2.4991 5.32499
upperback 0.880047 3.20401 -0.193644
thorax 2.27104 1.6818 -3.04868
lowerneck -14.1627 -40.7162 3.55348
upperneck 5.55642 20.6276 -1.46578
head 211.057 -172.052 -361.7
rclavicle -1.78906e-015 5.56597e-015
rhumerus -17.6051 -31.7356 -40.5396
rradius 58.2649
rwrist -43.6439
rhand 2.63967 5.75434
rfingers 7.12502
rthumb 28.1162 -22.158
lclavicle -1.78906e-015 5.56597e-015
lhumerus -50.6802 -5.21443 86.4009
lradius 84.862
lwrist 29.9923
lhand -14.1905 46.9991
lfingers 7.12502
lthumb 11.9454 796.638
rfemur -20.6907 1.84876 18.1826
rtibia 34.0255
rfoot -22.8086 -10.6827
rtoes 4.77053
lfemur -41.8267 0.66761 -26.1367
ltibia 46.7185
lfoot -8.87284 1.13378
ltoes -3.86329
894
root 10.2395 17.1601 2.67859 190.047 11.2797 538.253
lowerback -2.08455 2.64136 5.26713
upperback 0.864663 3.38391 -0.129364
thorax 2.37353 1.77262 -2.93211
lowerneck -14.7369 -41.5923 4.79829
upperneck 5.37015 19.7748 -1.93803
head 211.426 -167.051 -361.961
rclavicle -4.77083e-015 3.97569e-015
rhumerus -17.1163 -32.1709 -39.6255
rradius 57.3413
rwrist -43.4067
rhand 3.36365 6.23502
rfingers 7.12502
rthumb 28.808 -21.5616
lclavicle -4.77083e-015 3.97569e-015
lhumerus -51.0078 -4.67253 85.7032
lradius 84.2055
lwrist 29.8458
lhand -14.5178 47.0397
lfingers 7.12502
lthumb 11.6298 796.697
rfemur -20.719 1.55244 17.8309
rtibia 31.853
rfoot -21.8455 -11.6171
rtoes 5.15666
lfemur -42.6838 1.01107 -25.4403
ltibia 51.4071
lfoot -8.47271 2.86047
ltoes 2.4524
895
root 10.1638 17.2128 2.82126 190.821 10.1191 538.46
lowerback -2.56982 2.84703 5.52666
upperback 0.83817 3.62184 0.0286798
thorax 2.64701 1.90145 -2.87616
lowerneck -15.2096 -42.5256 6.04229
upperneck 5.11751 18.2739 -2.42121
head 211.716 -161.362 -362.353
rclavicle -1.53064e-014 -3.97569e-015
rhumerus -16.9257 -32.7674 -38.5543
rradius 56.5206
rwrist -43.0301
rhand 3.36416 6.48332
rfingers 7.12502
rthumb 28.8085 -21.3132
lclavicle -1.53064e-014 -3.97569e-015
lhumerus -51.2574 -4.36354 85.0841
lradius 83.7195
lwrist 30.3497
lhand -15.1258 46.9258
lfingers 7.12502
lthumb 11.0435 796.615
rfemur -20.9825 1.15128 17.8765
rtibia 30.0286
rfoot -20.8169 -12.294
rtoes 5.23158
lfemur -43.2371 2.04263 -24.4669
ltibia 55.4581
lfoot -8.69113 4.22265
ltoes 4.21468
896
root 10.0858 17.2656 2.95751 191.443 8.88794 538.781
lowerback -2.91969 3.05947 5.87726
upperback 0.820843 3.87277 0.205864
thorax 2.86067 2.03818 -2.85333
lowerneck -15.5775 -43.5566 7.3624
upperneck 4.88982 16.4434 -2.86929
head 212.068 -155.429 -362.79
rclavicle -3.45885e-014 -2.78299e-014
rhumerus -17.0114 -33.6578 -37.3727
rradius 55.6053
rwrist -42.807
rhand 2.94298 6.60306
rfingers 7.12502
rthumb 28.4061 -21.2613
lclavicle -3.45885e-014 -2.78299e-014
lhumerus -51.448 -4.09874 84.352
lradius 83.373
lwrist 30.75
lhand -15.274 46.6334
lfingers 7.12502
lthumb 10.9004 796.33
rfemur -21.13 0.647155 18.0388
rtibia 28.3722
rfoot -19.8447 -12.8572
rtoes 5.4282
lfemur -43.0607 3.57629 -23.4155
ltibia 58.4911
lfoot -8.56899 5.54996
ltoes 8.20026
897
root 10.0049 17.3164 3.08377 191.769 7.63126 538.903
lowerback -3.00702 3.20841 6.02679
upperback 0.810877 4.06249 0.324547
thorax 2.91939 2.1375 -2.79588
lowerneck -17.0022 48.4694 -15.5877
upperneck 4.01279 -2.4082 4.75824
head 207.669 -228.307 -364.187
rclavicle -7.7526e-015 -1.03368e-014
rhumerus -17.2199 -35.0072 -36.2487
rradius 54.4856
rwrist -42.9701
rhand 2.48935 6.86773
rfingers 7.12502
rthumb 27.9725 -21.0681
lclavicle -7.7526e-015 -1.03368e-014
lhumerus -51.699 -3.76358 83.4834
lradius 83.1902
lwrist 30.7775
lhand -15.1429 46.5029
lfingers 7.12502
lthumb 11.027 796.193
rfemur -20.7462 0.149 17.9369
rtibia 26.3814
rfoot -18.8349 -13.4277
rtoes 5.47769
lfemur -42.025 5.20659 -22.6057
ltibia 60.5292
lfoot -8.35883 6.77837
ltoes 10.998
898
root 9.9265 17.3631 3.20632 192.095 6.16008 539.003
lowerback -3.09053 3.29055 6.13888
upperback 0.738604 4.16721 0.442492
thorax 2.90048 2.19075 -2.72658
lowerneck -16.4035 47.3133 -14.1707
upperneck 4.24672 -4.97726 4.33896
head 207.946 -221.96 -363.89
rclavicle -2.10712e-014 7.15625e-015
rhumerus -17.6848 -36.9034 -35.1069
rradius 53.3117
rwrist -43.3964
rhand 2.40981 7.17548
rfingers 7.12502
rthumb 27.8965 -20.7727
lclavicle -2.10712e-014 7.15625e-015
lhumerus -51.9412 -3.41858 82.5379
lradius 83.1082
lwrist 30.571
lhand -14.7117 46.4156
lfingers 7.12502
lthumb 11.4428 796.083
rfemur -20.0535 -0.151355 17.8296
rtibia 23.9744
rfoot -17.8386 -14.305
rtoes 5.61517
lfemur -40.9246 6.75753 -21.7163
ltibia 62.1883
lfoot -8.39384 7.86077
ltoes 15.8901
899
root 9.85425 17.4014 3.323 192.398 4.45564 539.13
lowerback -3.24421 3.32443 6.20669
upperback 0.621341 4.20683 0.587453
thorax 2.86257 2.20982 -2.60696
lowerneck -15.725 46.2239 -12.8176
upperneck 4.4417 -7.07588 3.96633
head 208.066 -216.578 -363.699
rclavicle -3.26007e-014 7.95139e-015
rhumerus -18.6604 -39.0117 -33.7479
rradius 52.2719
rwrist -43.7473
rhand 2.48881 7.63097
rfingers 7.12502
rthumb 27.972 -20.3049
lclavicle -3.26007e-014 7.95139e-015
lhumerus -52.1519 -3.12538 81.5134
lradius 83.1138
lwrist 30.3699
lhand -14.1511 46.3617
lfingers 7.12502
lthumb 11.9834 795.999
rfemur -19.0519 0.062608 17.7494
rtibia 21.2017
rfoot -16.9122 -15.7647
rtoes 6.73735
lfemur -39.8321 8.52229 -20.8516
ltibia 63.2068
lfoot -7.8876 9.40806
ltoes 18.8001
